<?xml version="1.0" standalone="no"?>
<!DOCTYPE svg PUBLIC "-//W3C//DTD SVG 20010904//EN"
 "http://www.w3.org/TR/2001/REC-SVG-20010904/DTD/svg10.dtd">
<svg version="1.0" xmlns="http://www.w3.org/2000/svg"
 width="109.000000pt" height="109.000000pt" viewBox="0 0 109.000000 109.000000"
 preserveAspectRatio="xMidYMid meet">
<metadata>
Created by potrace 1.14, written by Peter Selinger 2001-2017
</metadata>
<g transform="translate(0.000000,109.000000) scale(0.100000,-0.100000)"
fill="#000000" stroke="none">
<path d="M393 887 c-59 -22 -117 -72 -141 -121 -25 -49 -23 -82 3 -72 8 3 15
0 15 -6 0 -6 3 -8 6 -5 4 3 14 2 24 -3 13 -7 20 -2 34 30 45 102 185 108 226
10 32 -76 -39 -180 -124 -180 -14 0 -28 -5 -32 -12 -4 -6 -3 -8 3 -5 6 4 9
-13 7 -45 l-2 -50 40 6 c42 7 88 32 88 48 0 5 4 7 9 4 12 -8 47 33 70 79 l19
39 17 -39 c26 -63 24 -144 -5 -186 -13 -19 -30 -37 -36 -42 -7 -4 -11 -16 -9
-27 2 -11 0 -18 -6 -15 -5 4 -9 2 -9 -4 0 -5 -19 -28 -42 -51 l-41 -42 44 7
c51 8 128 47 159 80 12 13 32 49 45 80 43 106 14 247 -79 385 -48 72 -76 98
-130 125 -54 27 -102 31 -153 12z"/>
<path d="M730 760 c-9 -5 -9 -9 -1 -14 6 -4 9 -12 6 -17 -4 -5 -1 -9 6 -9 7 0
9 -3 6 -7 -9 -8 24 -32 45 -33 10 0 32 -13 49 -28 27 -24 32 -36 33 -76 1 -42
-3 -51 -30 -75 -22 -18 -31 -34 -30 -51 1 -14 -3 -29 -9 -33 -5 -5 0 -5 13 -2
50 14 18 -45 -92 -167 -13 -14 -27 -24 -30 -21 -3 4 -6 -1 -6 -10 0 -14 7 -15
43 -11 78 11 124 50 173 145 76 152 69 307 -17 372 -47 35 -131 55 -159 37z"/>
<path d="M144 658 c-86 -18 -144 -111 -141 -225 3 -77 30 -129 91 -170 59 -40
100 -52 196 -60 170 -13 283 65 297 204 l6 55 -26 -17 c-14 -9 -32 -13 -38 -9
-8 4 -9 3 -5 -4 4 -7 3 -12 -3 -12 -6 0 -20 -18 -31 -41 -24 -47 -82 -78 -143
-79 l-38 0 21 29 c36 51 53 101 39 117 -9 11 -8 14 2 14 11 0 11 2 -1 10 -11
7 -12 10 -2 10 16 0 8 48 -14 92 -33 64 -127 103 -210 86z m96 -105 c68 -40
67 -159 -2 -207 -65 -46 -151 14 -150 105 1 92 80 145 152 102z"/>
<path d="M996 545 c1 -14 -2 -25 -7 -25 -5 0 -9 -5 -9 -11 0 -5 5 -7 11 -3 7
4 10 1 7 -7 -3 -8 1 -27 9 -43 21 -40 22 -96 4 -126 -22 -35 -38 -50 -45 -43
-3 3 -12 0 -21 -7 -10 -8 -15 -9 -15 -2 0 6 -18 -7 -40 -29 -22 -22 -40 -43
-40 -45 0 -2 19 -1 43 2 107 17 180 78 192 159 13 80 -21 166 -76 196 -13 7
-16 3 -13 -16z"/>
</g>
</svg>
